<?xml version="1.0" encoding="UTF-8" standalone="no"?>
<!-- Created with Inkscape (http://www.inkscape.org/) -->

<svg
   xmlns:dc="http://purl.org/dc/elements/1.1/"
   xmlns:cc="http://creativecommons.org/ns#"
   xmlns:rdf="http://www.w3.org/1999/02/22-rdf-syntax-ns#"
   xmlns:svg="http://www.w3.org/2000/svg"
   xmlns="http://www.w3.org/2000/svg"
   xmlns:sodipodi="http://sodipodi.sourceforge.net/DTD/sodipodi-0.dtd"
   xmlns:inkscape="http://www.inkscape.org/namespaces/inkscape"
   id="svg2"
   version="1.1"
   inkscape:version="0.91 r13725"
   xml:space="preserve"
   width="505"
   height="96"
   viewBox="0 0 505 96"
   sodipodi:docname="logo-white.svg"><metadata
     id="metadata8"><rdf:RDF><cc:Work
         rdf:about=""><dc:format>image/svg+xml</dc:format><dc:type
           rdf:resource="http://purl.org/dc/dcmitype/StillImage" /><dc:title></dc:title></cc:Work></rdf:RDF></metadata><defs
     id="defs6" /><sodipodi:namedview
     pagecolor="#ffffff"
     bordercolor="#666666"
     borderopacity="1"
     objecttolerance="10"
     gridtolerance="10"
     guidetolerance="10"
     inkscape:pageopacity="0"
     inkscape:pageshadow="2"
     inkscape:window-width="1855"
     inkscape:window-height="1056"
     id="namedview4"
     showgrid="false"
     inkscape:zoom="2.9069306"
     inkscape:cx="223.78963"
     inkscape:cy="18.479441"
     inkscape:window-x="65"
     inkscape:window-y="24"
     inkscape:window-maximized="1"
     inkscape:current-layer="g10" /><g
     id="g10"
     inkscape:groupmode="layer"
     inkscape:label="ink_ext_XXXXXX"
     transform="matrix(1.25,0,0,-1.25,0,96)"><g
       id="g12"
       transform="matrix(0.12331434,0,0,0.12331434,-47.029789,-38.125901)"><path
         d="m 914.313,321.27 c -2.872,-4.977 0.714,-11.196 6.46,-11.196 l 219.527,0 L 1023.82,510.945 914.313,321.27"
         style="fill:#ffffff;fill-opacity:1;fill-rule:nonzero;stroke:none"
         id="path14"
         inkscape:connector-curvature="0" /><path
         d="m 1284.72,538.844 -219.64,380.422 c -3.81,6.593 -10.85,10.66 -18.46,10.66 l -228.159,0 c -5.746,0 -9.34,-6.231 -6.449,-11.207 L 1163.29,312.93 c 3.19,1.84 5.91,4.504 7.81,7.804 l 113.62,196.793 c 3.8,6.594 3.8,14.719 0,21.317"
         style="fill:#ffffff;fill-opacity:1;fill-rule:nonzero;stroke:none"
         id="path16"
         inkscape:connector-curvature="0" /><path
         d="m 755.598,918.734 c 2.875,4.973 -0.715,11.192 -6.461,11.192 l -219.532,0 116.481,-200.871 109.512,189.679"
         style="fill:#ffffff;fill-opacity:1;fill-rule:nonzero;stroke:none"
         id="path18"
         inkscape:connector-curvature="0" /><path
         d="m 506.621,927.07 c -3.191,-1.84 -5.906,-4.504 -7.808,-7.804 L 385.195,722.473 c -3.808,-6.594 -3.808,-14.719 0,-21.317 L 604.828,320.734 c 3.813,-6.593 10.848,-10.66 18.465,-10.66 l 228.156,0 c 5.746,0 9.336,6.231 6.449,11.207 L 506.621,927.07"
         style="fill:#ffffff;fill-opacity:1;fill-rule:nonzero;stroke:none"
         id="path20"
         inkscape:connector-curvature="0" /><path
         d="m 2553.92,591.168 -67.9,198.074 -80.75,0 113.59,-310.597 70.11,0 113.59,310.597 -80.75,0 -67.89,-198.074"
         style="fill:#ffffff;fill-opacity:1;fill-rule:nonzero;stroke:none"
         id="path22"
         inkscape:connector-curvature="0" /><path
         d="m 3000.59,638.82 c -15.24,11.743 -33.11,19.453 -51.09,25.957 -12.07,4.364 -24.4,7.743 -36.11,13.075 -8.78,3.988 -18.21,7.5 -22.38,16.914 -3.34,7.554 -2.71,16.757 2.08,23.558 7.11,10.086 21.21,12.336 32.67,12.336 16.27,0 42.32,-7.945 70.13,-25.691 l 32.38,55.426 c -17.46,13.312 -35.36,22.566 -53.7,27.738 -18.34,5.172 -34.61,7.765 -48.81,7.765 -21.29,0 -39.71,-2.593 -55.23,-7.765 -15.53,-5.172 -27.36,-12.281 -35.5,-21.309 -8.13,-9.023 -14.05,-18.629 -17.75,-28.832 -3.69,-10.199 -5.55,-21.531 -5.55,-33.941 0,-10.942 2.07,-21.16 6.22,-30.621 4.14,-9.461 9.17,-17.227 15.08,-23.289 5.92,-6.075 13.61,-11.911 23.08,-17.536 9.46,-5.621 17.97,-9.972 25.51,-13.085 7.54,-3.11 16.63,-6.43 27.29,-9.993 15.38,-5.316 27.36,-11.007 35.94,-17.066 8.58,-6.074 12.87,-13.988 12.87,-23.738 0,-15.114 -9.36,-27.555 -24.19,-30.621 -16.68,-3.45 -35.33,-0.52 -51.9,2.277 -18.5,3.117 -36.69,7.934 -54.54,13.68 l -22.46,-58.121 c 46.74,-15.969 84.75,-23.95 114.04,-23.95 21.8,0 42.28,1.25 62.74,9.742 6.06,2.516 12.57,6.125 19.53,10.864 18.76,12.785 28.53,34.672 31.42,56.633 2.97,22.578 0.57,50.925 -13.37,69.734 -5.86,7.918 -10.6,13.848 -18.4,19.859"
         style="fill:#ffffff;fill-opacity:1;fill-rule:nonzero;stroke:none"
         id="path24"
         inkscape:connector-curvature="0" /><path
         d="m 3579.28,788.875 0,-160.094 -96.05,160.094 -77.06,0 0,-310.598 77.06,0 0,160.453 96.05,-160.453 77.06,0 0,310.598 -77.06,0"
         style="fill:#ffffff;fill-opacity:1;fill-rule:nonzero;stroke:none"
         id="path26"
         inkscape:connector-curvature="0" /><path
         d="m 3313.82,577.844 c 0,0 0,0.062 0,0.066 -0.04,-1.258 -0.09,-3 -0.16,-5.293 -0.11,-0.101 -0.17,-0.215 -0.14,-0.359 0.01,-0.07 0.04,-0.153 0.09,-0.25 l -0.26,-1.028 c -0.16,-1.523 -0.7,-3.261 -1.36,-5.312 -1.46,-4.035 -4.39,-9.383 -10.11,-14.703 -5.7,-5.172 -14.32,-10.352 -25.13,-12.067 -3.19,-0.585 -6.31,-0.824 -9.75,-0.773 -3.43,-0.051 -6.55,0.188 -9.74,0.773 -10.81,1.715 -19.43,6.895 -25.13,12.067 -5.72,5.32 -8.65,10.668 -10.11,14.703 -0.66,2.051 -1.2,3.789 -1.36,5.312 l -0.27,1.028 c 0.06,0.097 0.09,0.18 0.1,0.25 0.02,0.144 -0.04,0.258 -0.14,0.359 -0.07,2.293 -0.12,4.035 -0.16,5.293 0,-0.004 0,-0.066 0,-0.066 0,0 -0.04,1.488 0,0.066 0,0.711 0.02,69.746 -0.03,114.418 0.33,6.219 2.37,14.281 9.81,22.27 7.2,7.769 19.76,14.207 33.16,14.793 1.3,0.097 2.58,-0.102 3.87,-0.102 1.3,0 2.57,0.199 3.87,0.102 13.41,-0.586 25.97,-7.024 33.17,-14.793 7.43,-7.989 9.48,-16.051 9.81,-22.27 -0.12,-49.828 -0.03,-113.707 -0.03,-114.418 0.04,1.422 0.07,2.207 0.07,2.207 l -0.07,-2.273 z m 77.03,112.5 c -0.26,3.234 -0.51,6.504 -0.77,9.808 -2.95,26.641 -18.67,52.403 -40.31,68.707 -21.65,16.77 -48.3,25.204 -76.03,26.629 -2.22,0.098 -4.48,0.067 -6.74,0.067 -2.25,0 -4.52,0.031 -6.74,-0.067 -27.72,-1.425 -54.37,-9.859 -76.02,-26.629 -21.64,-16.304 -37.36,-42.066 -40.32,-68.707 -0.25,-3.304 -0.51,-6.574 -0.76,-9.808 -0.05,-2.09 -0.1,-4.156 -0.14,-6.199 -0.08,-3.946 0.11,-106.301 0.11,-106.301 l 0.07,-2.27 c 0,0 0.28,-2.875 0.8,-8.265 0.35,-2.434 0.79,-5.157 1.37,-8.129 0.31,-1.481 0.63,-3.028 0.97,-4.641 0.4,-1.328 0.82,-2.711 1.26,-4.144 1.71,-5.727 4.39,-11.977 7.9,-18.586 7.19,-13.118 19.01,-26.661 34.8,-37.387 15.74,-10.746 35.62,-18.367 57.5,-21.199 6.15,-0.938 12.74,-1.239 19.2,-1.192 6.47,-0.047 13.06,0.254 19.21,1.192 21.88,2.832 41.75,10.453 57.5,21.199 15.79,10.726 27.61,24.269 34.8,37.387 3.51,6.609 6.19,12.859 7.9,18.586 0.44,1.433 0.86,2.816 1.26,4.144 0.34,1.613 0.66,3.16 0.97,4.641 0.57,2.972 1.02,5.695 1.37,8.129 0.52,5.39 0.8,8.265 0.8,8.265 l 0.07,2.27 c 0,0 0.19,102.355 0.11,106.301 -0.05,2.043 -0.1,4.109 -0.14,6.199"
         style="fill:#ffffff;fill-opacity:1;fill-rule:nonzero;stroke:none"
         id="path28"
         inkscape:connector-curvature="0" /><path
         d="m 3049.43,478.648 77.0586,0 0,310.594 -77.0586,0 0,-310.594 z"
         style="fill:#ffffff;fill-opacity:1;fill-rule:nonzero;stroke:none"
         id="path30"
         inkscape:connector-curvature="0" /><path
         d="m 2713.97,478.648 77.0625,0 0,310.594 -77.0625,0 0,-310.594 z"
         style="fill:#ffffff;fill-opacity:1;fill-rule:nonzero;stroke:none"
         id="path32"
         inkscape:connector-curvature="0" /><path
         d="m 2316.82,478.102 77.0586,0 0,310.598 -77.0586,0 0,-310.598 z"
         style="fill:#ffffff;fill-opacity:1;fill-rule:nonzero;stroke:none"
         id="path34"
         inkscape:connector-curvature="0" /><path
         d="m 1616.54,581.215 0,-0.063 0.07,2.231 c 0,0 -0.02,-0.77 -0.07,-2.168"
         style="fill:#ffffff;fill-opacity:1;fill-rule:nonzero;stroke:none"
         id="path36"
         inkscape:connector-curvature="0" /><path
         d="m 1698.16,577.871 c 0.04,1.426 0.06,2.207 0.06,2.207 l -0.06,-2.269 0,0.062 c -0.04,-1.254 -0.09,-2.996 -0.17,-5.293 -0.1,-0.101 -0.16,-0.211 -0.14,-0.355 0.02,-0.075 0.05,-0.157 0.1,-0.254 l -0.26,-1.028 c -0.16,-1.519 -0.7,-3.257 -1.36,-5.312 -1.46,-4.031 -4.39,-9.379 -10.11,-14.699 -5.7,-5.172 -14.32,-10.352 -25.13,-12.067 -3.2,-0.586 -6.31,-0.824 -9.75,-0.773 -3.43,-0.051 -6.55,0.187 -9.74,0.773 -10.82,1.715 -19.43,6.895 -25.13,12.067 -5.72,5.32 -8.65,10.668 -10.12,14.699 -0.66,2.055 -1.2,3.793 -1.35,5.312 l -0.27,1.028 c 0.06,0.097 0.09,0.179 0.1,0.254 0.02,0.144 -0.04,0.254 -0.14,0.355 -0.07,2.297 -0.12,4.039 -0.16,5.293 l 0,-0.062 -0.07,2.269 c 0,0 0.02,-0.781 0.07,-2.207 0,0.426 0.08,182.176 0.08,211.371 l -77.25,0 c 0.04,-27.965 0.11,-211.433 0.11,-211.433 l 0.06,-2.27 c 0,0 0.28,-2.879 0.81,-8.266 0.35,-2.437 0.79,-5.16 1.37,-8.132 0.31,-1.481 0.63,-3.028 0.97,-4.637 0.4,-1.328 0.82,-2.711 1.26,-4.149 1.71,-5.726 4.39,-11.976 7.9,-18.585 7.19,-13.118 19.01,-26.657 34.8,-37.383 15.74,-10.75 35.62,-18.371 57.49,-21.199 6.16,-0.938 12.75,-1.243 19.21,-1.192 6.46,-0.051 13.06,0.254 19.21,1.192 21.88,2.828 41.75,10.449 57.5,21.199 15.79,10.726 27.61,24.265 34.79,37.383 3.52,6.609 6.2,12.859 7.91,18.585 0.44,1.438 0.85,2.821 1.26,4.149 0.33,1.609 0.66,3.156 0.97,4.637 0.57,2.972 1.02,5.695 1.37,8.132 0.52,5.387 0.8,8.266 0.8,8.266 l 0.07,2.27 c 0,0 0.07,183.468 0.11,211.433 l -77.26,0 c 0.01,-29.195 0.09,-210.945 0.09,-211.371"
         style="fill:#ffffff;fill-opacity:1;fill-rule:nonzero;stroke:none"
         id="path38"
         inkscape:connector-curvature="0" /><path
         d="m 2222.72,582.055 c 0.12,-0.871 0.06,-1.782 -0.04,-2.707 -0.63,-6 -2.06,-11.7 -4.89,-17.082 -4.58,-8.719 -12.87,-17.438 -23.47,-17.618 -3.72,-0.062 -35.49,-0.039 -62.19,-0.003 l 0,178.601 c 26.7,0.031 58.47,0.059 62.18,-0.008 3.77,-0.336 5.69,-0.859 8.68,-2.16 5.53,-2.43 11.17,-8.105 14.91,-15.363 1.89,-3.574 3.25,-7.524 4.08,-11.34 0.34,-1.746 0.81,-4.359 0.63,-4.605 0.16,1.73 0.11,-107.715 0.11,-107.715 z m 75.63,116.418 c -1.1,7.586 -2.68,12.59 -4.5,18.312 -3.63,11.145 -9.43,21.063 -16.05,29.977 -13.21,17.894 -31.79,31.066 -52.43,37.984 -10.13,3.453 -21.77,4.496 -31.06,4.449 -3.71,-0.062 -139.24,0.047 -139.24,0.047 l 0,-310.597 77.06,0 c 0,0 58.47,0.113 62.18,0.05 8.16,0.399 5.7,-0.273 13.98,0.731 3.05,0.426 6.6,0.914 9.28,1.59 2.6,0.718 5.22,1.441 7.86,2.172 20.66,6.972 39.18,20.175 52.36,38.035 6.64,8.886 12.37,18.8 16.02,29.91 1.83,5.543 3.48,11.238 4.41,17.234 0.56,2.965 1.01,5.969 1.18,9.071 0.25,2.863 0.48,6.781 0.47,8.257 0.42,15.91 0.39,80.676 -0.03,96.586 -0.39,8.793 -0.2,6.696 -1.49,16.192"
         style="fill:#ffffff;fill-opacity:1;fill-rule:nonzero;stroke:none"
         id="path40"
         inkscape:connector-curvature="0" /><path
         d="m 1964.19,665.406 c -0.28,-1.273 -0.68,-2.511 -1.11,-3.789 -1.62,-5.156 -5.18,-9.965 -9.71,-13.324 -2.24,-1.75 -4.84,-2.754 -7.44,-3.645 -3.11,-0.695 -3.86,-1.117 -10.97,-1.281 -6.32,-0.109 -35.86,-0.09 -60.96,-0.051 l 0,79.993 c 25.1,0.039 54.64,0.054 60.96,-0.055 7.1,-0.16 7.86,-0.582 10.97,-1.277 2.59,-0.891 5.19,-1.895 7.44,-3.649 4.52,-3.355 8.09,-8.164 9.71,-13.32 0.42,-1.278 0.82,-2.516 1.1,-3.793 0.13,-1.027 0.63,-3.195 0.34,-3.004 0.04,-0.281 0.08,-0.086 0.09,-0.426 l 0,-28.949 c -0.01,-0.336 -0.04,-0.141 -0.08,-0.422 0.29,0.188 -0.22,-1.98 -0.34,-3.008 z m 71.57,59.418 c -1.83,4.961 -3.89,9.793 -6.52,14.309 -10.29,18.164 -25.91,32.105 -43.34,40.437 -8.75,4.137 -17.88,6.938 -26.97,8.586 -8.67,1.574 -19.68,1.055 -23.97,1.114 -7.33,0.093 -138.02,0.171 -138.02,0.171 l 0,-310.796 77.06,0 0,98.64 c 24.65,-0.019 53.64,-0.023 60.96,0.07 4.3,0.059 15.31,-0.46 23.98,1.11 9.09,1.652 18.22,4.453 26.96,8.59 17.44,8.332 33.05,22.269 43.35,40.437 2.62,4.516 4.69,9.348 6.52,14.309 4.84,13.094 6.9,28.262 6.76,42.152 l 0,0 c 0.13,13.895 -1.93,27.777 -6.77,40.871"
         style="fill:#ffffff;fill-opacity:1;fill-rule:nonzero;stroke:none"
         id="path42"
         inkscape:connector-curvature="0" /></g></g></svg>